HIERARCHY
ROOT Hips
{
 OFFSET 0.000000 0.000000 0.000000
 CHANNELS 6 Xposition Yposition Zposition Yrotation Xrotation Zrotation
 JOINT Chest
 {
  OFFSET 0.000000 9.857222 0.000240
  CHANNELS 3 Yrotation Xrotation Zrotation
  JOINT Chest2
  {
   OFFSET 0.000000 10.876940 -0.000436
   CHANNELS 3 Yrotation Xrotation Zrotation
   JOINT Chest3
   {
    OFFSET 0.000000 9.827798 0.000000
    CHANNELS 3 Yrotation Xrotation Zrotation
    JOINT Chest4
    {
     OFFSET 0.000000 9.827798 0.000000
     CHANNELS 3 Yrotation Xrotation Zrotation
     JOINT Neck
     {
      OFFSET 0.000000 13.831992 0.000000
      CHANNELS 3 Yrotation Xrotation Zrotation
      JOINT Head
      {
       OFFSET 0.000000 9.147643 -0.001036
       CHANNELS 3 Yrotation Xrotation Zrotation
       End Site
       {
        OFFSET 0.000000 17.515799 -0.000541
       }
      }
     }
     JOINT RightCollar
     {
      OFFSET -3.001579 7.717577 0.000000
      CHANNELS 3 Yrotation Xrotation Zrotation
      JOINT RightShoulder
      {
       OFFSET -14.002642 0.000000 0.000000
       CHANNELS 3 Yrotation Xrotation Zrotation
       JOINT RightElbow
       {
        OFFSET -30.053852 0.000000 0.000000
        CHANNELS 3 Yrotation Xrotation Zrotation
        JOINT RightWrist
        {
         OFFSET -24.564923 0.000000 -0.000000
         CHANNELS 3 Yrotation Xrotation Zrotation
         End Site
         {
          OFFSET -18.334355 0.000000 0.000000
         }
        }
       }
      }
     }
     JOINT LeftCollar
     {
      OFFSET 3.001579 7.717577 0.000000
      CHANNELS 3 Yrotation Xrotation Zrotation
      JOINT LeftShoulder
      {
       OFFSET 14.002642 0.000000 0.000000
       CHANNELS 3 Yrotation Xrotation Zrotation
       JOINT LeftElbow
       {
        OFFSET 30.053852 0.000000 0.000000
        CHANNELS 3 Yrotation Xrotation Zrotation
        JOINT LeftWrist
        {
         OFFSET 24.564923 0.000000 -0.000000
         CHANNELS 3 Yrotation Xrotation Zrotation
         End Site
         {
          OFFSET 18.334355 0.000000 0.000000
         }
        }
       }
      }
     }
    }
   }
  }
 }
 JOINT RightHip
 {
  OFFSET -8.003235 -0.001175 -0.000120
  CHANNELS 3 Yrotation Xrotation Zrotation
  JOINT RightKnee
  {
   OFFSET 0.000000 -41.759727 0.000113
   CHANNELS 3 Yrotation Xrotation Zrotation
   JOINT RightAnkle
   {
    OFFSET 0.000000 -40.728748 0.000159
    CHANNELS 3 Yrotation Xrotation Zrotation
    JOINT RightToe
    {
     OFFSET 0.000000 -6.515296 14.732841
     CHANNELS 3 Yrotation Xrotation Zrotation
     End Site
     {
      OFFSET 0.000000 -1.502839 6.412115
     }
    }
   }
  }
 }
 JOINT LeftHip
 {
  OFFSET 8.003235 -0.001175 -0.000120
  CHANNELS 3 Yrotation Xrotation Zrotation
  JOINT LeftKnee
  {
   OFFSET 0.000000 -41.759727 0.000113
   CHANNELS 3 Yrotation Xrotation Zrotation
   JOINT LeftAnkle
   {
    OFFSET 0.000000 -40.728748 0.000159
    CHANNELS 3 Yrotation Xrotation Zrotation
    JOINT LeftToe
    {
     OFFSET 0.000000 -6.515296 14.732841
     CHANNELS 3 Yrotation Xrotation Zrotation
     End Site
     {
      OFFSET 0.000000 -1.502839 6.412115
     }
    }
   }
  }
 }
}
MOTION
Frames: 11
Frame Time: 0.016667
0.000000 88.822259 0.000000 0.000000 -5.826342 0.000000 0.000000 11.116423 0.000000 0.000000 -5.290081 0.000000 0.000000 0.000000 0.000000 0.000000 0.000000 0.000000 0.000000 12.665069 0.000000 0.000000 0.575450 0.000000 0.000000 0.000000 0.000000 0.000000 0.000000 0.000000 2.337306 0.000000 0.000000 -2.337306 0.000000 0.000000 0.000000 0.000000 0.000000 0.000000 0.000000 0.000000 -2.337306 0.000000 0.000000 2.337306 0.000000 0.000000 0.000000 8.578828 0.000000 0.000000 1.905768 0.000000 0.000000 -4.658254 0.000000 0.000000 0.000000 0.000000 0.000000 8.578828 0.000000 0.000000 1.905768 0.000000 0.000000 -4.658254 0.000000 0.000000 0.000000 0.000000
6.189718 90.485270 -2.911262 -30.981371 -3.515747 0.188453 0.102049 6.112447 0.282459 -0.034032 2.741733 0.076037 -0.034032 2.741733 0.076037 -0.025860 2.056295 0.057170 -7.397944 23.149964 0.566608 -13.468422 7.160826 2.951365 7.513922 3.675279 8.860364 35.713020 -3.315529 76.081562 18.717876 11.678225 -4.338123 -5.669365 2.359959 -0.776327 -18.074774 7.249649 -12.763283 -24.235577 15.522031 -63.390158 -41.062658 -25.805381 3.769258 6.004895 4.348060 5.144279 -1.877011 7.192031 -3.856247 -3.185414 1.973717 2.051451 -4.045056 -5.468733 1.765489 0.189808 -0.046188 0.334553 -17.056358 3.338993 2.033846 25.661078 9.461964 0.328021 3.171886 -5.750789 -3.451757 -0.074853 -0.175531 -0.026658
6.230712 90.479507 -2.943910 -30.827392 -3.186358 0.290357 0.081347 6.199696 0.239148 -0.018244 2.748434 0.077952 -0.018244 2.748434 0.077952 -0.014031 2.061323 0.058535 -7.164643 23.320675 0.512407 -13.025815 7.450845 2.778549 7.600377 3.742511 8.862950 35.706434 -3.313761 75.897344 19.332677 11.844766 -4.567814 -5.654148 2.298195 -0.968526 -18.048133 7.355108 -12.707479 -24.015298 15.458242 -63.182399 -42.218305 -25.488534 4.452370 5.917153 4.361520 5.199676 -2.194016 6.724730 -3.943961 -2.841518 2.198623 1.925024 -4.139245 -5.575694 1.814422 0.111094 -0.037717 0.314270 -17.130294 2.691488 2.120413 25.699090 9.968385 0.377733 3.133304 -5.854363 -3.471097 -0.089534 -0.220807 -0.016320
6.269298 90.475003 -2.988787 -30.668148 -2.942100 0.344929 0.101045 6.267777 0.249833 -0.015664 2.782657 0.075356 -0.015664 2.782657 0.075356 -0.012089 2.086991 0.056577 -6.944758 23.500468 0.456190 -12.607178 7.759649 2.605624 7.707024 3.793590 8.890905 35.733832 -3.220967 75.764180 20.037392 11.954800 -4.852254 -5.655644 2.251047 -1.188601 -18.056042 7.521158 -12.647520 -23.800599 15.433998 -62.990239 -43.467543 -25.159730 5.161654 5.863351 4.385065 5.293776 -2.328132 6.316757 -3.914705 -2.741717 2.444785 1.780341 -4.249095 -5.631640 1.800561 0.131812 -0.059447 0.328177 -17.305500 2.132403 2.248996 25.793153 10.514086 0.382252 3.137135 -5.984070 -3.476839 -0.107025 -0.257531 -0.005095
6.332008 90.472291 -3.056580 -30.501712 -2.653462 0.380945 0.121147 6.302784 0.276538 -0.019922 2.808198 0.076518 -0.019922 2.808198 0.076518 -0.015290 2.106146 0.057469 -6.736362 23.688423 0.386324 -12.206155 8.084085 2.411378 7.806410 3.793585 8.907242 35.846831 -3.040779 75.720352 20.756980 12.045747 -5.249843 -5.658375 2.229615 -1.355787 -18.045928 7.623448 -12.566924 -23.593344 15.459431 -62.846187 -44.700288 -24.762182 5.864356 5.845803 4.367557 5.366777 -2.217550 5.878337 -3.879460 -3.029508 2.670237 1.683338 -4.232601 -5.647905 1.778512 0.143534 -0.091186 0.335984 -17.534848 1.526637 2.453486 25.780914 11.065628 0.280379 3.273288 -6.066560 -3.447734 -0.116549 -0.318793 0.011825
6.424340 90.457741 -3.156686 -30.355199 -2.248086 0.423013 0.157547 6.287595 0.291368 -0.018761 2.805023 0.079056 -0.018761 2.805023 0.079056 -0.014431 2.103765 0.059367 -6.544070 23.886094 0.317915 -11.834914 8.428904 2.223921 7.842519 3.728209 8.914130 35.953719 -2.831271 75.732196 21.460789 12.217559 -5.596047 -5.672801 2.222408 -1.505827 -18.053313 7.665244 -12.481404 -23.394449 15.513013 -62.722013 -45.810913 -24.388638 6.430503 5.827770 4.434979 5.437635 -1.827915 5.250373 -3.865245 -3.501568 3.011593 1.659919 -4.227065 -5.728512 1.743904 0.149812 -0.090829 0.322703 -17.646579 0.797587 2.716543 25.642413 11.614100 0.108122 3.427233 -6.192477 -3.374923 -0.116696 -0.320323 0.027253
6.535512 90.441282 -3.285982 -30.198533 -1.858171 0.481643 0.187059 6.242623 0.309114 -0.025231 2.786421 0.080138 -0.025231 2.786421 0.080138 -0.019285 2.089813 0.060207 -6.359748 24.128752 0.239104 -11.474540 8.857568 2.017107 7.878830 3.627754 8.930358 35.983324 -2.543694 75.730808 22.147914 12.461969 -5.769730 -5.706496 2.227513 -1.681650 -18.085913 7.725226 -12.457909 -23.138679 15.597703 -62.556840 -46.800385 -23.970410 6.822698 5.815800 4.496039 5.442303 -1.233418 4.659784 -3.854226 -4.246795 3.296949 1.621821 -4.224364 -5.775418 1.732487 0.167296 -0.075956 0.301504 -17.673632 0.059482 2.938099 25.510226 12.119757 -0.011742 3.535087 -6.284209 -3.311557 -0.121472 -0.309185 0.037576
6.648864 90.436588 -3.381137 -30.038618 -1.639140 0.564542 0.193765 6.183623 0.314132 -0.034387 2.760600 0.078029 -0.034387 2.760600 0.078029 -0.026138 2.070446 0.058666 -6.175176 24.473325 0.135595 -11.105232 9.473772 1.759233 7.977636 3.587845 8.990133 35.969509 -2.192817 75.745477 22.742797 12.705366 -5.800992 -5.769540 2.241043 -1.924012 -18.135105 7.917633 -12.487638 -22.872194 15.689739 -62.362648 -47.576375 -23.532204 6.994571 5.787926 4.502092 5.411249 -0.891612 4.300221 -3.923737 -4.688264 3.463011 1.610298 -4.304745 -5.761517 1.743043 0.186700 -0.083655 0.272079 -17.725257 -0.475007 3.030205 25.516806 12.531507 -0.078048 3.542092 -6.323100 -3.245451 -0.139372 -0.326916 0.041697
6.728911 90.425286 -3.419750 -29.973373 -1.266924 0.635258 0.230766 5.974740 0.325143 -0.024644 2.662625 0.075906 -0.024644 2.662625 0.075906 -0.018811 1.996966 0.057027 -5.997671 24.908821 -0.005957 -10.738575 10.256833 1.430081 8.099158 3.500817 9.045760 35.938381 -1.714455 75.809236 23.213505 12.904528 -5.753382 -5.821686 2.261060 -2.121377 -18.122215 8.074614 -12.479790 -22.750080 15.847972 -62.269073 -48.055994 -23.235732 6.999686 5.792034 4.506464 5.330201 -0.813984 3.887247 -3.968565 -4.822738 3.457848 1.539560 -4.311591 -5.732659 1.791050 0.213109 -0.067001 0.238701 -17.777497 -1.056915 3.157230 25.499932 12.879113 -0.190265 3.678027 -6.416885 -3.181560 -0.160537 -0.325318 0.046849
6.774707 90.382599 -3.421428 -29.901252 -0.637765 0.683744 0.253678 5.591519 0.356167 -0.019647 2.479675 0.079604 -0.019647 2.479675 0.079604 -0.015056 1.859754 0.059774 -5.828354 25.384934 -0.181525 -10.380452 11.114381 1.041699 8.168286 3.379651 9.035345 36.031253 -1.178705 75.987571 23.498650 13.060484 -5.737702 -5.839765 2.257306 -2.206272 -18.019304 8.021518 -12.444147 -22.697342 16.095897 -62.328170 -48.149655 -23.016600 6.719099 5.808868 4.475662 5.237590 -1.079541 3.325915 -3.939900 -4.523519 3.259420 1.372007 -4.417683 -5.743336 1.888558 0.247263 0.034941 0.207916 -17.972108 -1.828526 3.383074 25.524185 13.233759 -0.325627 3.889239 -6.647928 -3.125678 -0.187200 -0.246970 0.045534
6.806969 90.319824 -3.370023 -29.765061 -0.129497 0.717230 0.221596 5.233229 0.383618 -0.033575 2.309825 0.090651 -0.033575 2.309825 0.090651 -0.025520 1.732363 0.068106 -5.654048 25.837387 -0.354472 -10.018105 11.929796 0.661276 8.167408 3.172689 8.979444 36.328272 -0.643807 76.331910 23.572583 13.136583 -5.721144 -5.851928 2.261018 -2.268003 -17.852238 7.747198 -12.421886 -22.493013 16.420233 -62.368299 -47.923736 -22.853446 6.046552 5.811073 4.419250 5.146162 -1.738078 2.940642 -3.947586 -3.688578 2.996972 1.266192 -4.643487 -5.809725 1.991515 0.262057 0.164049 0.167490 -18.153644 -2.438088 3.551443 25.707039 13.547154 -0.408293 3.922636 -6.959211 -3.060339 -0.206043 -0.117072 0.038126
